/* XPM */
static char *_3b24aa59a2d43e7afda3496f7df5a00Ch5RLozUoR3o9eKI[] = {
/* columns rows colors chars-per-pixel */
"64 64 211 2 ",
"   c None",
".  c #3A0A0D",
"X  c #36070B",
"o  c #3B0C11",
"O  c #360A12",
"+  c #3E141A",
"@  c #521A06",
"#  c #4B1419",
"$  c #461717",
"%  c #5F1D1F",
"&  c #410908",
"*  c #68191E",
"=  c #4B2312",
"-  c #662919",
";  c #4C2122",
":  c #5D2B2E",
">  c #5A2725",
",  c #5D2D33",
"<  c #5D2E38",
"1  c #5C3234",
"2  c #573222",
"3  c #652B2B",
"4  c #6A2D2D",
"5  c #672825",
"6  c #702C23",
"7  c #732C2E",
"8  c #72272E",
"9  c #6B312D",
"0  c #653B29",
"q  c #733023",
"w  c #73342B",
"e  c #763A2C",
"r  c #7A382C",
"t  c #632D33",
"y  c #6B2D33",
"u  c #712F33",
"i  c #643235",
"p  c #6C3233",
"a  c #6F3936",
"s  c #663539",
"d  c #6B3439",
"f  c #66383A",
"g  c #6D3A3B",
"h  c #733433",
"j  c #7A3635",
"k  c #753A37",
"l  c #7B3A34",
"z  c #73353A",
"x  c #7A3739",
"c  c #743B3C",
"v  c #7D3C3C",
"b  c #794536",
"n  c #79503E",
"m  c #753D42",
"M  c #7B3D42",
"N  c #6B474C",
"B  c #6B494E",
"V  c #67494B",
"C  c #744244",
"Z  c #7D4244",
"A  c #7E4249",
"S  c #7D4B4B",
"D  c #764648",
"F  c #6E4A50",
"G  c #6A4650",
"H  c #745348",
"J  c #813F2F",
"K  c #803B34",
"L  c #823D3D",
"P  c #8A3F32",
"I  c #83432A",
"U  c #82423E",
"Y  c #89463C",
"T  c #8C4B3B",
"R  c #8A4938",
"E  c #934D3B",
"W  c #8D513C",
"Q  c #94513E",
"!  c #9B5A3D",
"~  c #995238",
"^  c #A05C3D",
"/  c #813F43",
"(  c #883D42",
")  c #834444",
"_  c #894543",
"`  c #854845",
"'  c #8A4943",
"]  c #84444A",
"[  c #89474A",
"{  c #854B4A",
"}  c #8B4B4C",
"|  c #924D4C",
" . c #924744",
".. c #8D524E",
"X. c #865749",
"o. c #9C5945",
"O. c #94524E",
"+. c #9A564D",
"@. c #985845",
"#. c #8C4D52",
"$. c #844B51",
"%. c #924E52",
"&. c #9E4D51",
"*. c #835053",
"=. c #8D5252",
"-. c #8C5C52",
";. c #8E5B5D",
":. c #925254",
">. c #935259",
",. c #95585A",
"<. c #9B5C5A",
"1. c #975954",
"2. c #A85D4A",
"3. c #AC5956",
"4. c #92644D",
"5. c #916052",
"6. c #97625B",
"7. c #9E705C",
"8. c #8F6454",
"9. c #AB694D",
"0. c #A96745",
"q. c #B36D4A",
"w. c #AA7A4D",
"e. c #BC7446",
"r. c #AC6D54",
"t. c #A66855",
"y. c #AB7253",
"u. c #AE735B",
"i. c #AC7E5C",
"p. c #AF7E56",
"a. c #BB7B53",
"s. c #B4725C",
"d. c #BB7558",
"f. c #945A60",
"g. c #8A6365",
"h. c #9A6667",
"j. c #9E7060",
"k. c #8B7673",
"l. c #967B75",
"z. c #A36567",
"x. c #BE7C64",
"c. c #B67968",
"v. c #AA787A",
"b. c #B87A77",
"n. c #AE7967",
"m. c #C27E4D",
"M. c #C67959",
"N. c #CB7D69",
"B. c #BE814B",
"V. c #BD8452",
"C. c #98807F",
"Z. c #B28375",
"A. c #C8844D",
"S. c #C88557",
"D. c #D38858",
"F. c #CB905C",
"G. c #D2975C",
"H. c #C68462",
"J. c #C58960",
"K. c #C98961",
"L. c #CB886E",
"P. c #D2886B",
"I. c #DB9B6B",
"U. c #D99767",
"Y. c #D28F73",
"T. c #D5957D",
"R. c #D99A75",
"E. c #CA8C6A",
"W. c #E39D6C",
"Q. c #E19364",
"!. c #E29D73",
"~. c #E39F79",
"^. c #DCA16E",
"/. c #DEA475",
"(. c #E6A56C",
"). c #E2A274",
"_. c #EBA575",
"`. c #EDAA76",
"'. c #E5A47D",
"]. c #EAA47B",
"[. c #EAAB7C",
"{. c #F1AC7B",
"}. c #EFB37E",
"|. c #F1B37C",
" X c #F0B87F",
".X c #998B8C",
"XX c #A78987",
"oX c #AF938D",
"OX c #B6938A",
"+X c #B79895",
"@X c #BEA4A6",
"#X c #C08F8B",
"$X c #DC9B82",
"%X c #C39B92",
"&X c #DFA285",
"*X c #EDAE89",
"=X c #EAA886",
"-X c #F3AD83",
";X c #F8AD85",
":X c #ECB382",
">X c #F3B383",
",X c #FBB184",
"<X c #F2B38B",
"1X c #FCB58C",
"2X c #F7BA87",
"3X c #EEAE92",
"4X c #F9BA93",
"5X c #C5ADA9",
"6X c #D8B6B6",
"7X c #FEC49F",
"8X c #ECC9C6",
/* pixels */
"                                                                                                                                ",
"                                                                                                                                ",
"                                                                                                                                ",
"                                                                                                                                ",
"                                                                                                                                ",
"                                                                                                                                ",
"                                                                                                                                ",
"                                                                                                                                ",
"                                                                                                                                ",
"                                                                                                                                ",
"                                                                                                                                ",
"                                                                                                                                ",
"                                                                                                                                ",
"                                                                                                                                ",
"                                                                                                                                ",
"                                                                                                                                ",
"                                                                                                                                ",
"                                                                                                                                ",
"                                                                                                                                ",
"                                                                                                                                ",
"                                                                                                                                ",
"                    H = 0 0 0 $ . X . X o . o & X o $ o o o o o $ O O O O X + : s f i , $ o O o o ; o .X                        ",
"                  6.Z.H.a.a.a.H.Y _ :...<.#.%.%.=.:.:...C d i d d i s g c i 4 z [ ..:.<.:.#.] k %.:.=.H oX                      ",
"                  O.0.'.>X|.-XH.J J ' | | x x x j k j k h 9 M =.*.*.C 3 4 z v ` } _ j j x [ | _ 7 L ` { 6.XX                    ",
"                OXu.T.:X/.I.W.].s. .Y &.O.) L U U U U L L { ,.z.z.h.:.Z M _ | +.&.| L _ L  .:.| U U 1.:.x h.                    ",
"                @ M.4XF.V.K.m.1X$X@.6 T _ ' ` } [ [ { { { { =.,.6.=.{ [ } ' ) _ _ ' Y | _ [ ` ) [ { ) ` ) b.                    ",
"                I D.,XU./.:XS.<XT.@.4 w h 9 4 4 4 3 d d h S C S c p 3 4 c 5 j h h h p w d p p 9 3 y 3 m 8 b.                    ",
"                E M.,XI.F.2XV.4XT.t.Y ....=.C i s c S S g.;.c A z 9 p v [ x ] %.O.} { =.=.>.=.S y t y / ( v.                    ",
"                @ H.;XQ.B.A.V.<XT.+.e l k [ #.*.A d m $.<.h.f.>.[ #.#.%.>.[ %.] u Z =.=.M u m m m M m m m XX                    ",
"                OXr.Y._.`._.(.R.r.r 6 h u M A A m y m $.$.=.*.Z M / / x / M M y 4 z Z M y t y y y / m t # g.                    ",
"                  S r.!.}.`.`.S.I - - 9 4 i < , i D S S g s 3 y y t , t t t s i s i t s i d t t y m 8 : h.                      ",
"                k.b t.M.0.q.q.d.R e e 9 a i C g D S S C p i i d t d i m s < s s 1 i s d i s m y m % M % OX8X                    ",
"          Z.q T R 2. .P q - r W @.E @.O.1.k ] Z { C g d 4 p k 3 y y d t t s i i s s d d d z m y i y ( ( 5 & y # .X              ",
"        l.n.d.M.M.d.N.9.l r T x.x.s.c.N.b.v :.z.>.<.} } :.| [ :.>.m y y d y t d d d y y y M ( >.*.] >.M k %.%.>.S XX            ",
"        j.! /.,X-X-XP.2.J 6 ~ a.[.*X3X3XL.r U 2.<.| x h x x j h z u y c ] } ] x 5 y 4 [ } | ( j x w [ | L l h |  .z.k.          ",
"      l.u.Y.).(.!.!.!.H.2.E q.U.^.)./.:X=XZ.R ' O.} ) / / v Z ` / ) M [ >.:.:.[ [ [ ` } %.:.} ) L L | | O.' K | 3.* v.          ",
"      2 V.}._.m.D.A.|.).9.o.S.2XF.V.^.V.7X$X@.- ` ` { { } *.{ { } { ) { { A { ` ) ] ` { [ ` { [ [ %.{ ) ` Y U | &.8 oX          ",
"      8.w.`.Q.Q.1XA.|.I.0.~ K.2XG.(. XU.4XT.W e w w p y 4 4 4 9 9 d p 9 p 9 y 5 h 9 4 h h 9 9 4 4 h p h w 3 9 4 8 % XX          ",
"      X.w. X^.D.,Xm.|.).0.^ S.>XD.W.(.U.4XY.@.Y O...} x 8 4 x :.:.:.v h 3 4 h 4 ) ) j | | O.| :.=.=.} #.) p k 5 %.z +X          ",
"      2 i.:X`.e.D.m.|.].9.o.K.1XD.A.m.A.4XL.@.w h v :.>.[ / h h x } :.} } #.:._ %.:.[ :.v j v :.#.m z m 9 z A c / > XX          ",
"      5XZ.V.I.|.`.!.!.M.@.R q.U.`.`.).'.T.9.w 9 y t m m M M p y 4 c M C c v C v c Z M Z 9 3 d Z M y y d p d b z u # XX          ",
"        7.! R.[.=X;XN.2.K q ~ d.)._.:X&Xc.b > a s , m i t d t d d s y d i 4 i i i i 3 i a i d y d y d d s s s s # h.5X          ",
"        %XZ.p.y.y.q.c.+.m u Y n.s.r.s.c.7.k : 3 < < < < t < t 3 , , , , , < t i < , , t < , < , , , , : 1 1 < f g.6X            ",
"          %Xn 4.4.X.<.*.C C C 1.5.5.8.X.S N N N N G G N N N N N N N N N N N F G N B N N N N N B B N V N V B B F 5X              ",
"                                                                                                                                ",
"                                                                                                                                ",
"                                                                                                                                ",
"                                                                                                                                ",
"                                                                                                                                ",
"                                                                                                                                ",
"                                                                                                                                ",
"                                                                                                                                ",
"                                                                                                                                ",
"                                                                                                                                ",
"                                                                                                                                ",
"                                                                                                                                ",
"                                                                                                                                ",
"                                                                                                                                ",
"                                                                                                                                ",
"                                                                                                                                ",
"                                                                                                                                ",
"                                                                                                                                ",
"                                                                                                                                ",
"                                                                                                                                "
};
