/* XPM */
static char *e21f45542c494645fd38bca099a82721pPR8cOScPDQnPkSe[] = {
/* columns rows colors chars-per-pixel */
"64 64 72 1 ",
"  c None",
". c black",
"X c #434322",
"o c #494925",
"O c #4C4C26",
"+ c #4E4E27",
"@ c #4F4F27",
"# c #505028",
"$ c #515129",
"% c #525229",
"& c #55552A",
"* c #56562B",
"= c #57572B",
"- c #58582C",
"; c #5B5B2D",
": c #5C5C2E",
"> c #5D5D2E",
", c #5F5F30",
"< c #606030",
"1 c #616131",
"2 c #636331",
"3 c #646432",
"4 c #656533",
"5 c #686834",
"6 c #696935",
"7 c #6A6A35",
"8 c #6C6C36",
"9 c #6D6D36",
"0 c #6D6D37",
"q c #6E6E37",
"w c #6F6F37",
"e c #6F6F38",
"r c #707038",
"t c #717139",
"y c #727239",
"u c #737339",
"i c #73733A",
"p c #74743A",
"a c #75753A",
"s c #75753B",
"d c #76763B",
"f c #77773B",
"g c #77773C",
"h c #78783C",
"j c #79793C",
"k c #79793D",
"l c #7A7A3D",
"z c #7B7B3D",
"x c #7B7B3E",
"c c #7C7C3E",
"v c #7D7D3E",
"b c #7D7D3F",
"n c #7E7E3F",
"m c #7F7F3F",
"M c #7F7F40",
"N c #808040",
"B c #808080",
"V c #818181",
"C c #838383",
"Z c gray52",
"A c #888888",
"S c #898989",
"D c gray54",
"F c #8E8E8E",
"G c gray56",
"H c #959595",
"J c gray59",
"K c gray60",
"L c #9F9F9F",
"P c gray63",
"I c #AAAAAA",
"U c #B7B7B7",
/* pixels */
"                       J9e989e8989erddrrJ                       ",
"                   VUNNM................NNnP                    ",
"                 INNN......................NNNL                 ",
"               AnN............................NnA               ",
"              KMN..............................NNK              ",
"             nN..................................Nn             ",
"            n......................................n            ",
"           z........................................z           ",
"          n..........................................z          ",
"         z............................................g         ",
"        z..............................................d        ",
"       g................................................d       ",
"      d..................................................d      ",
"     r....................................................r     ",
"     g....................................................M     ",
"    <......................................................z    ",
"    9......................................................Ng   ",
"   <........................................................N   ",
"  *..........................................................d  ",
"  <..........................................................N  ",
"  3..........................................................N  ",
"  ............................................................d ",
"  ............................................................n ",
"  ............................................................n ",
" ..............................................................>",
" ..............................................................<",
" ..............................................................3",
" ..............................................................<",
" ..............................................................>",
" ..............................................................;",
" ..............................................................;",
" ..............................................................%",
" ..............................................................%",
" ..............................................................%",
" ..............................................................%",
" ..............................................................+",
" ..............................................................+",
" ..............................................................+",
" ..............................................................*",
" ..............................................................;",
" r............................................................z ",
" 9............................................................n ",
" ,............................................................z ",
"  n..........................................................NZ ",
"  n..........................................................N  ",
"  z..........................................................N  ",
"   M........................................................NG  ",
"   zN......................................................NN   ",
"    z......................................................nM   ",
"     z....................................................NA    ",
"     z....................................................N     ",
"      d..................................................n      ",
"       d................................................M       ",
"        d..............................................z        ",
"         r............................................z         ",
"          r..........................................z          ",
"           d........................................M           ",
"            z......................................M            ",
"             dn..................................MM             ",
"               nN..............................NMA              ",
"                MM............................MM                ",
"                 CMMN......................MMM                  ",
"                    DMMM................MMMF                    ",
"                        $    Xo$*,146e66G                       "
};
