/* XPM */
static char *_46ff6cf09d74af5f1870bd2747e83adH2oR0gTDq1cAD1j3[] = {
/* columns rows colors chars-per-pixel */
"64 64 239 2 ",
"   c None",
".  c #1B0000",
"X  c #2B0000",
"o  c #370200",
"O  c #23373B",
"+  c #383736",
"@  c #173336",
"#  c #5B0000",
"$  c #560900",
"%  c #581700",
"&  c #490702",
"*  c #6B0100",
"=  c #650500",
"-  c #720000",
";  c #6B1600",
":  c #651A00",
">  c #6B1B00",
",  c #651600",
"<  c #771A00",
"1  c #562715",
"2  c #6C2301",
"3  c #6B2607",
"4  c #702500",
"5  c #732B01",
"6  c #752C09",
"7  c #7A3515",
"8  c #74310D",
"9  c #56312A",
"0  c #713721",
"q  c #004C57",
"w  c #174B54",
"e  c #18535C",
"r  c #00565D",
"t  c #385558",
"y  c #2F5053",
"u  c #3B5D61",
"i  c #1A6A6A",
"p  c #097070",
"a  c #366768",
"s  c #287977",
"d  c #337E7A",
"f  c #357776",
"g  c #306B6A",
"h  c #296063",
"j  c #47585C",
"k  c #554E5A",
"l  c #486567",
"z  c #556769",
"x  c #557574",
"c  c #517074",
"v  c #657479",
"b  c #727575",
"n  c #695F5C",
"m  c #870000",
"M  c #8B1B00",
"N  c #842800",
"B  c #833200",
"V  c #883604",
"C  c #8C3A11",
"Z  c #823E23",
"A  c #8A421E",
"S  c #964315",
"D  c #984418",
"F  c #954208",
"G  c #A64604",
"H  c #A54D19",
"J  c #AD4E0E",
"K  c #8D4A2D",
"L  c #894427",
"P  c #944B2D",
"I  c #9B4C2C",
"U  c #964823",
"Y  c #9A502D",
"T  c #8F4C32",
"R  c #924D32",
"E  c #994E31",
"W  c #984F38",
"Q  c #955234",
"!  c #9B5334",
"~  c #9C573A",
"^  c #8D563A",
"/  c #A34E25",
"(  c #A04D2D",
")  c #A5532C",
"_  c #A65227",
"`  c #A25534",
"'  c #A45A3B",
"]  c #AB5C3C",
"[  c #A85835",
"{  c #B45C37",
"}  c #B85C2E",
"|  c #AB613F",
" . c #B9633D",
".. c #C9642C",
"X. c #C56433",
"o. c #C96433",
"O. c #C6663A",
"+. c #C8673A",
"@. c #C5693D",
"#. c #CB6A3C",
"$. c #D46D36",
"%. c #D46E3B",
"&. c #D96E39",
"*. c #D3713D",
"=. c #DB713E",
"-. c #CF6E33",
";. c #E26610",
":. c #865948",
">. c #995C47",
",. c #906455",
"<. c #AC6244",
"1. c #A8664A",
"2. c #B46544",
"3. c #BA6543",
"4. c #BC6945",
"5. c #B5694A",
"6. c #BD6B4A",
"7. c #B56748",
"8. c #BA7457",
"9. c #AE7057",
"0. c #88756E",
"q. c #B87B65",
"w. c #A25F42",
"e. c #C36A45",
"r. c #CB6D45",
"t. c #C46D4A",
"y. c #CB6E4A",
"u. c #C36742",
"i. c #D26E45",
"p. c #D66F47",
"a. c #CC7146",
"s. c #C5714C",
"d. c #CC714B",
"f. c #D47345",
"g. c #DB7545",
"h. c #D3744A",
"j. c #DA764B",
"k. c #DD7A4B",
"l. c #D77949",
"z. c #C27252",
"x. c #C77A59",
"c. c #D77B53",
"v. c #E57B45",
"b. c #EB7B44",
"n. c #E37B4B",
"m. c #EA7D4B",
"M. c #E27643",
"N. c #E47D51",
"B. c #32827E",
"V. c #68837E",
"C. c #47827B",
"Z. c #AF8675",
"A. c #B78A76",
"S. c #DD855A",
"D. c #CE805E",
"F. c #EB814C",
"G. c #E7814E",
"H. c #EB8452",
"J. c #E38456",
"K. c #F38752",
"L. c #C88568",
"P. c #D58A69",
"I. c #CA8D70",
"U. c #E58D67",
"Y. c #E49369",
"T. c #E49C76",
"R. c #007C80",
"E. c #677A86",
"W. c #737C87",
"Q. c #5F7F87",
"!. c #2C8585",
"~. c #2A8C8C",
"^. c #288B88",
"/. c #328582",
"(. c #368A89",
"). c #2C9494",
"_. c #399191",
"`. c #34908F",
"'. c #38A6A5",
"]. c #38B6B4",
"[. c #488987",
"{. c #4E9090",
"}. c #6C848C",
"|. c #688688",
" X c #72838D",
".X c #71888F",
"XX c #6B8B95",
"oX c #728592",
"OX c #738B94",
"+X c #768C96",
"@X c #6D949B",
"#X c #6C9397",
"$X c #73939C",
"%X c #77989E",
"&X c #6E918B",
"*X c #6C9CA5",
"=X c #769BA2",
"-X c #5AA8AB",
";X c #4AB2B1",
":X c #6AA3AA",
">X c #75A3A8",
",X c #68ABB2",
"<X c #68B4B9",
"1X c #4F9BA0",
"2X c #60C1BE",
"3X c #69BEC1",
"4X c #42BFC3",
"5X c #48C7C5",
"6X c #5BCACB",
"7X c #59C8C8",
"8X c #56D0CD",
"9X c #48D6D4",
"0X c #54D2D3",
"qX c #5BD3D4",
"wX c #53DAD9",
"eX c #5BDBDA",
"rX c #5BCDD0",
"tX c #65C8CA",
"yX c #65CED2",
"uX c #62D3D4",
"iX c #65D7D8",
"pX c #76CCCD",
"aX c #5AE1DC",
"sX c #66E2DF",
"dX c #5BDEE1",
"fX c #57DDE1",
"gX c #5CE2E3",
"hX c #5CE5E9",
"jX c #56E8E7",
"kX c #5CF2F2",
"lX c #57F4F4",
"zX c #50EBEB",
"xX c #62E3E4",
"cX c #65EBE9",
"vX c #66EFF0",
"bX c #60DFE5",
"nX c #BD9182",
"mX c #82949A",
"MX c #C39782",
/* pixels */
"                                                                                                                                ",
"                                                          f f i i s i                                                           ",
"                                                    `.s 7XxXeXgXaXaXjX5XB.`.                                                    ",
"                                                c '.eXaXsXrX,X*X:X:XqXaXaXeX'.f                                                 ",
"                                            [.;XlXqX=X>XoXfX3X+XoX3XfXoX:X#XeXzX].C.                                            ",
"                                        x 5X8XuX0XyX%X%X*X-X(.z c (.-X=X#X#XtXqXuX7XtXz                                         ",
"                                      z zXkX:X}.+XpX6Xj l 1 = # # # 1 u l 6XtXoXoX:XkXkXz                                       ",
"                                    x 0X<X7X2X%XmXl g % # 7 7 6 7 7 6 # % a l @X@X3XtX<X8Xl                                     ",
"                                  c 7X<X}.@XyX{.o % * Z 3 r.a.5.2.7.! 7 L * 1 & {.yX*X}.<X7Xl                                   ",
"                                o wXuXW.@X@Xz & ; 7 R s.` &.j.7.6.t.R X.m.E 7 > & z $X@X|.yX9XX                                 ",
"                                c wXhX3X%Xl # U ` 4.6.s.( *.h.2.3.6.! X.m.y.4.I Z # l =X<XgX0Xa                                 ",
"                              X 9XtX|.6Xx $ 2 g.m.7.4.h.` %.h.2.3.6.~ ..n.e.i.h.3.2 $ c 6XOXtX9X.                               ",
"                              [.7X*X#XE.o L Z %.n.u.e.j.E %.h.3.e.4.E ..k.3.i.p.[ ) ( . |.@X:X7X`.                              ",
"                              4XiXoX*Xz % ! W %.k.e.s.d.T %.h.e.i.4.E o.k.<.p.j.! *.O.% z *XXXuX4X                              ",
"                            _.6X6XgX@XX 7 4.R %.h.t.y.d.R %.h.r.i.6.W o.k.<.i.p.T O.g.6 o *XgX6X7X_.                            ",
"                            '.iX#X<Xl $ Q s.R %.l.e.p.y.T %.j.r.p.6.E o.k.<.t.p.T #.k.K , l <X*XuX'.                            ",
"                            ).bX XXXO B 4.6.P *.h.2.r.e.K %.h.p.p.7.W o.k.<.3.j.W @.k.2.5 O +X+XaX).                            ",
"                          a ;X,XW.|.+ 5 6.6.R *.h.7.y.t.T %.h.y.y.t.E ..n.<.e.j.] +.j.2.5 + |.+X<X-Xt                           ",
"                          [.kXyXyXs * 4.4.6.T -.h.2.u.4.L %.n.r.e.y.! o.k.<.e.j.[ +.k.7.| * x iXqXkX/.                          ",
"                          (.kX7XtXp M H.e.6.K *.f.7.x.I.>.%.M.e.4.i.E ..n.1.4.l.[ +.k.7.8.C f tX7XjX/.                          ",
"                          ^.gX X$Xq N n.4.5.K @.f.q.I.I.9.g.k.7.4.r.R X.k.<.7.s.Y @.l.5.8.5 y #X}.qX~.                          ",
"                          ^.gX.X*Xn N E U D A U Y 1.1.1.1.' U U S I A U Y U S U A D Y ! Y B n #XoXeX~.                          ",
"                          ^.hX,Xb ..K.=.G.S.v.v.M.U.T.Y.Y.S.M.m.S.n.m.n.M.v.J.n.v.k.S.U.n.F.-.v <XgX/.                          ",
"                          !.lXfX&X;.S.O.L.A.u.s.r.8.MXx.@.e.e.x.nXz.t.t.r.8.nXz.s.D.D.A.x.h.G |.jXjXd                           ",
"                          ^.xXXXW. .{ W ~ ~ ' ' ~ ` I Y ~ ~ ! ` ' ' ! ~ ` ` ~ ` 1.1.! ` ~ ) >.v Q.rX!.                          ",
"                          ^.xXOX$Xj = 3 ; : 5 2 : ; 2 > 2 : : 5 > ; > : : > > 2 2 , ; ; 2 = n XXx rX/.                          ",
"                          ~.gX$X=Xh < @.[ ' L { @.' ` ] L { e.[ ' ] I )  .~ ' | L {  .] ' = t @XXX0XB.                          ",
"                          !.lXfXxXR.m H.t.z.P =.H.t.t.s.P =.F.4.4.y.{ o.m.7.t.s.Q i.n.y.t.* /.aXwXjXf                           ",
"                          ~.hX,X<Xi N N.4. .P *.f.e.4.4.R $.M.e.4.e.{ X.N.<.4.t.W O.v.r.y.< h :X1X0Xf                           ",
"                          ~.fX}.#Xw V G.,.,.L *.f.e.t.z.R $.f.r.t.h.[ +.n.<.4.t.R O.v.t.y.4 y v k 4Xd                           ",
"                          ~.fXW.OXq V -.W.+Xo g.f.e.a.4.T $.f.r.r.y.! o.k.<.r.t.R +.m.t.e.5 y v k 5XB.                          ",
"                          ~.lXtXyXp M k.0.0.7 f.l.7.a.y.T *.f.e.i.i.W o.k.7.r.e.R @.m.4.y.- g 7X7XwXd                           ",
"                          ~.kXuXiXp m F.~ :.I %.h.2.r.h.P $.h.7.f.h.W o.n.7.r.t.R @.v.r.y.- g 6X8XwXf                           ",
"                          ~.dXW.+Xw 6 F.>.:.P f.h.| e.s.K &.h.5.i.r.W o.k.2.r.t.Q @.b.h.t.> y x k 7XB.                          ",
"                          ~.xX X%Xw B F.>.:.I *.l.2.e.h.P *.c.5.i.y.Q o.k.<.y.y.T @.g.#.3.: t E.z 8X/.                          ",
"                          ~.hX,X<Xi N F.w.:.! %.h.7.4.j.w.l.c.7.h.i.E o.n.7.i.s.R +.g.d.t.* a :X-X0XB.                          ",
"                          ~.kXaXsXp m H.,.,.K %.h.2.7.x.1.f.f.3.p.y.E X.n.4.p.p.T O.S.I.P.B s wXwXfXs                           ",
"                          ~.hX@X>Xr V -.W.mXo p.h.| 4.c.' $.h.7.p.i.W o.N.4.p.h.P a.Y.P.P.^ t XXQ.0XB.                          ",
"                          ~.gX X$Xq V M.0.b 7 *.f.7.x.x.I $.f.3.r.e.W o.j.3.i.p.P #.Y.L.L.:.j Q.x 0X/.                          ",
"                          ~.fXoX%Xw B F.] | Q %.f.8.8.t.` &.h.7.7.e.~ o.m.e.t.p.Q X.U.I.L.7 t }.v qX/.                          ",
"                          ~.lXjXxX^.- J.e.6.K *.S.9.4.y.( i.j.2.5.6.! X.m.u.4.p.R O.g.5.7.* B.gXfXjXd                           ",
"                          ~.cX,X<Xr N m.e.t.P g.c.2.4.a.` %.j.6.t.6.E o.b.3.e.c.' +.n.2.7.* a ,X-X0XB.                          ",
"                          ~.xX X$Xq < g.| <.L #.e.' 3.4.L X.r.<.<.| K } n. .| t.W { i.] 1.# y XXE.8X/.                          ",
"                          ).bX X#X,.G ) / H _ / ) _ H _ / / ) / H ) / / _ _ H / _ ) _ H / G ,.|.E.rX/.                          ",
"                          !.lX2XV.;.F.M.U.U.b.m.b.H.Y.n.b.F.b.n.U.F.m.m.b.H.Y.F.b.m.F.Y.J.K...x <XaXB.                          ",
"                          !.kXwX&X;.c.{ q.Z.2.7.3.8.Z.5.5.5.3.9.Z.5.7.7.7.5.A.9.3.7.7.Z.8.7.G V.0XjXd                           ",
"                          ~.bXW.|.1./ T D F Y P P U D ~ Q U P P S P I Y K P S P P P K S P U :.E.E.rX/.                          ",
"                          ).dXW.@Xt # 6 3 3 : 2 2 2 3 5 2 5 2 2 3 2 5 2 2 2 5 2 ; 2 5 6 6 = j oXE.eX!.                          ",
"                          ~.hX:X<Xh M l.e.3.L +.r.| 4.3.K @.e.{ e.3.P } f. . .e.P  .a.| | ; a ,X,XaX(.                          ",
"                          !.lXhXxXR.m H.i.h.K g.h.4.a.r.T &.k.y.h.d.! o.F.4.y.j.~ #.k.7.6.* B.xXxXlXB.                          ",
"                          !.hX*X*Xe B n.e.r.I f.h. .e.t.T $.h.t.t.r.Q o.k.<.r.h.Q @.l.<.3.* t >X>XaX^.                          ",
"                          _.bX X$Xw B m.3.h.` %.l.r.4.3.K %.n.r.e.r.` o.N.<.e.t.Q +.k.7.7.; l %XXXeX!.                          ",
"                          _.cX+X>Xe B F.t.s.Y g.k.4.8.x.^ &.m.r.t.h.{ o.n.7.4.s.W #.G.4.z.L z =X=XxX`.                          ",
"                          x {.j z @ 1 [ ! R 0 Y [ ~ 9.9.:.R ` P R ` 0 L ` T P E 0 K ` K >.9 O z j {.|.                          ",
"                                                                                                                                ",
"                                                                                                                                ",
"                                                                                                                                ",
"                                                                                                                                ",
"                                                                                                                                ",
"                                                                                                                                ",
"                                                                                                                                ",
"                                                                                                                                ",
"                                                                                                                                ",
"                                                                                                                                "
};
