/* XPM */
static char *_8db8807e29e49c0d2e8af803d1789a524t8bswappi5FQF7[] = {
/* columns rows colors chars-per-pixel */
"64 64 144 2 ",
"   c #1A2845",
".  c #202F4C",
"X  c #22334F",
"o  c #293656",
"O  c #2B3A56",
"+  c #2E3B5B",
"@  c #313E5D",
"#  c #323F61",
"$  c #2F405C",
"%  c #32415E",
"&  c #354363",
"*  c #394466",
"=  c #3B4966",
"-  c #3A4669",
";  c #3D4A6B",
":  c #3F506C",
">  c #414E6E",
",  c #43526E",
"<  c #414F70",
"1  c #465273",
"2  c #485474",
"3  c #4A5876",
"4  c #495678",
"5  c #4D5B7B",
"6  c #505D7E",
"7  c #4F607C",
"8  c #53627E",
"9  c #515F80",
"0  c #566483",
"q  c #596686",
"w  c #576885",
"e  c #5A6986",
"r  c #576588",
"t  c #5A6789",
"y  c #5B698A",
"u  c #5F6B91",
"i  c #606B87",
"p  c #606C8C",
"a  c #62718F",
"s  c #616E91",
"d  c #657393",
"f  c #687696",
"g  c #6A7996",
"h  c #6A7799",
"j  c #6D7C9A",
"k  c #707F9C",
"l  c #73819E",
"z  c #7684A2",
"x  c #7885A3",
"c  c #7B8AA6",
"v  c #7A87A9",
"b  c #7E8EA8",
"n  c #7F8DAA",
"m  c #7E8CA9",
"M  c #7F8DAC",
"N  c #7C8BAA",
"B  c #818FA9",
"V  c #818FAC",
"C  c #808FAE",
"Z  c #808EA9",
"A  c #8391AE",
"S  c #8593AE",
"D  c #8795AF",
"F  c #8391AD",
"G  c #8893AF",
"H  c #8795B1",
"J  c #8696B0",
"K  c #8797B1",
"L  c #8695B2",
"P  c #8795B2",
"I  c #8796B3",
"U  c #8696B1",
"Y  c #8997B1",
"T  c #8896B1",
"R  c #8994B2",
"E  c #8A95B3",
"W  c #8997B2",
"Q  c #8896B3",
"!  c #8897B4",
"~  c #8997B4",
"^  c #8B96B4",
"/  c #8996B6",
"(  c #8C97B5",
")  c #8996B2",
"_  c #8898B1",
"`  c #8898B2",
"'  c #8999B2",
"]  c #8A98B2",
"[  c #8A98B3",
"{  c #8A9AB3",
"}  c #8B99B4",
"|  c #8A98B5",
" . c #8B9BB5",
".. c #8B99B6",
"X. c #8B9AB7",
"o. c #8C9AB5",
"O. c #8D9BB5",
"+. c #8D98B6",
"@. c #8D9BB6",
"#. c #8C9AB7",
"$. c #8C9CB6",
"%. c #8D9DB7",
"&. c #8E9CB6",
"*. c #8F9DB7",
"=. c #8B99B5",
"-. c #8996B8",
";. c #8D9BB8",
":. c #8E9BBB",
">. c #8D9CB9",
",. c #8F9DB8",
"<. c #8E9CB9",
"1. c #8E9EB8",
"2. c #8F9FB8",
"3. c #8F9FB9",
"4. c #8E9DBA",
"5. c #8F9DBA",
"6. c #8F9EBB",
"7. c #8E9CBA",
"8. c #909BB7",
"9. c #909BB9",
"0. c #909EB8",
"q. c #909EB9",
"w. c #919FB9",
"e. c #919CBA",
"r. c #929DBB",
"t. c #919FBA",
"y. c #909EBB",
"u. c #909FBC",
"i. c #919FBC",
"p. c #939EBC",
"a. c #929FBF",
"s. c #909EBC",
"d. c #91A1BB",
"f. c #91A0BD",
"g. c #93A1BC",
"h. c #92A2BC",
"j. c #93A1BE",
"k. c #95A3BE",
"l. c #91A0BC",
"z. c #929FC1",
"x. c #97A5C0",
"c. c #96A4C1",
"v. c #94A2C1",
"b. c #9AA8C5",
/* pixels */
"D T ] ] ] ] T ~ T ~ T P | ] D ] O.S O.D o.g % = % % % > @ d E -.R R E E E E E E  . . .! ! X.o.o.o.] ] ` K K K I I I K K ` K ` ` ",
"&.&.0.d.e.e.e.e.e.a.5.e.e.5.&.&.8.k.0.' b.a   % % > , % o f p.9.p.p.e.e.p.p.e.e.v.M 1.1.6.6.e.e.o.] $.5.d.d.6.>.6.6.%.%.%.d.d.%.",
"l c c c Z x Z v N v c c c Z c B c B Z c S l q y = % % 3 > d v Z v x Z Z Z Z Z x b c N N b b N c J 2.2.l l l M N M N N N b b b b ",
"e 8 q q q t 9 r 0 0 q q 8 8 8 8 i 8 8 8 6 k x.k.8 % > a t t 9 t 0 0 0 0 6 8 q 0 w 9 w w 0 0 0 6 z 2.' , + = w y 0 0 7 0 8 8 8 7 ",
"e e y t t t t y e e a i 8 8 i i 6 0 e y y j | | 3 O > e i p i t e y y y e y y e u y y y u u w w x u.! 3 $ ; y y y y y y y a i w ",
"e e t t e t i t y e e i i g l b N S l i e l 5.6.8 % 1 i r t t t y y 0 y e e e y w w w w w w w w a l l 8 7 0 s y w w w w w w w w ",
"y y t i i t t t y y e 8 i l k.k.o.<.S e 8 l c.$.8 O > i t t r i y y t t t t y y u y y u y u u y 0 0 w w y y y w a y y y y y i w ",
"y t t t r t t i q y a e i l O.' <.o.B a 8 l P P 8 @ > 8 e i e e y y y y y t t y y y w y w w w u y e e y y y t y y y y y i w w i ",
"r u u t y y y y y q e e e e i i i p i e e i u d ; & : y t t w y y y y y r y y r y y y r y y y r y y y w y u y w y u w r y y y w ",
"t t t y t t r r y i i e 8 y i q e y w w w e y 0 1 % ; y y y w y t t y y y r y y y y r y w y y y w y w r w r r u w a y r y y y w ",
"t t r u r f j j 0 5 8 e e y y q e e y w w a l j 3 + ; y y u r y y r y r y y y y y y y y y y y y w y y l z l 4 9 9 y y y y w y y ",
"r u r y r M 6.X., % , y y e e e y w y y e z X.u.9 $ ; y w y y y r y y y y y y y y r y y y y y w y y y M z.N - $ 9 y y y y w y w ",
"r u y y 0 b 5.| , $ : e y e y y y w y w w l -.z.9 % ; y r y y y y y w y w y y w y y y y w y y y y w y M z.N $ & 7 y y y y y y y ",
"r r w y w d j j 8 3 8 e e y y 0 y w y w w u l l 3 $ ; u y y r y y y y y y w y w y w y w w y w y w w f M z.v $ - 5 y y y w w w w ",
"y y y y e w w w e i y e y y s y y w y y y w r r : $ : t t y r t y y y y y w y y y y w y y y w w w w d M v.M & $ 5 w y w w w y i ",
"r y y w y e e e w w y y w y y y y y y y y y r u : & : w r r r y w w w y y y y y y r y y w y y y y w d M >.N & & 7 w y i w y y w ",
"y y t p t p 9 s t y y y y y y y r r r y y 4 & - - & - ; - 4 t u 1 - 1 r r u r u t t s t q y e y y y u u y y y y y r u w w r w u ",
"t t p p p 9 u p y y y y y y y y u u u y u 9 # - - & & - - 4 u u : # ; r t u t u u t p i e p i i y y u y u y y y y u w u u u u w ",
"9 9 9 9 9 9 9 9 9 9 7 9 9 9 9 9 9 9 9 9 9 9 - ; - * & * & : 9 9 : # - 9 9 r 9 9 9 9 9 0 6 6 5 3 9 w 9 9 7 7 7 7 9 7 9 9 7 w 9 9 ",
"* * > # * * - # - & - = - - - & - & & & - - # - - = - = & - ; - - ; & - # - * # * # # @ & & = = & & & & & = & = - - ; & - & ; & ",
"@ @ @ @ # + # + + $ $ + % % @ $ % @ @ O + # + # + + + @ $ $ O O + # # # # - * - * - - ; % % = O $ $ $ $ $ $ $ $ $ $ $ $ $ $ $ $ ",
"k l x x k x z z z z z z l l l l x l x z l z l l z z l x z z z c k v k k v s * - ; - & * % 5 l x l l c b z z z z z z l b z z z l ",
"8.8.e.0.&.5.5.5.2.2.d.0.g.d.d.d.e.&.f.d.5.f.6.u.5.2.&.&.2.$.%.2.a.a.z.z.v.k + & & & & & % q k.o.M x.h.x.3.x.h.h.M b.b.b.h.v.4.4.",
"G G T T ] P ` ] ] D ' ' ' ' ' ' &.o.&.` F ` ` L P ] ] ` ] ` _ { H -.-.-.<.z & 3 = * = ; + 0 e.D 3.M b M b M M d.b b M M M M ! M ",
"i i i i i i i i i i i e e i e e B d.F y i i i a i i i i y a i i y y i a w l 8.O.i + % 8 e e i i 8 a 8 l a w y y l l w l 7 l 7 w ",
"i 8 i i q q 6 i e e i 8 w e e e ] f.F e w w 8 e 8 i i 8 w w 8 i q q e e 8 j &.o.e + = e e e e y a w 8 w w w w w 7 7 7 7 7 7 8 w ",
"q q 8 i i q q t e e e e w w r y x Z l e w w y y e e w i w w w y q 8 i y q j e.e.y + = e i y e q 8 w w w w w w w l l l l 7 l w l ",
"i i i i t t i i e e i i y w y t w w y 8 0 w y w e e e w y y y y e e e i q j 5.d.e + = e e y q e w a w w w a y y l b b l 7 w 8 7 ",
"q q t i t t t t y e y y y r r y e q y y y y y r y y y y y y y y y q e e 8 j 0.0.w O - e y y y y a w y e y y y w z >.-.d w w w w ",
"t t t t t i t t y y y y y y y y y q r u y y w w y y y y y y r y e q e e 0 j <.&.w + ; w y y y y w w y y y y y w d l l u l 7 w w ",
"i t t u t u t u y y y y y u r y y y y u t u y u y y y y y y u y i e y y w j e.e.a + ; r y r y y w u a w u r u r r r r r y y w w ",
"t t t t t t t t y y y y y r u y t y r y t y r y y y y y y r r y y e y e q j 5.5.y O - r y y w u w y y y y r r r u r y y y w u w ",
"r y t w y y t t r r r y t t y y y y y y y y y y y w y e r w y y y q e i w j %. .e + = 8 e i w y a w y y y y y y w y w y w w y y ",
"y y t y y r r r y y y y y y y t w y e y y e y e y y y y y y y y e q e e 8 l d.%.w + : e w i w 8 w w w w y y w y w w y w y w y w ",
"t y r u r f j j r 9 9 9 9 0 p t y e y w 0 y t y w y w w y y r y e w e e 7 g %.>.y O = q 0 w y w a l g y y y y y y y w w w y y w ",
"w y y t r N z.:.: & & & & 4 t y y y y e w y y y y y y w y w y t y q p w 0 l 6.z.a O % q i w a w N v. .d 0 y y y y y y y y y w y ",
"r y y y 0 N r.-.: % % & # 4 i y y y t y y t y t 0 y y t t t r r y r e r w j X.z.y @ > y e e y 9 N z.! d r t t t t t y t y y y w ",
"y y 0 y q d h j r 9 9 9 6 9 i r t t t y y t t u 4 4 1 1 4 9 y t e r i y w y y y 2 & = 2 > 6 y q d j h u u y y y y y t y y y t y ",
"q q t y t q 0 q y y t u e i i t t t y y y t t t ; & & # # : y t i y i y y 3 @ @ * # & & @ < y y r r w t t y y y y y y y y y y u ",
"q y y 0 q q t t 0 0 0 w 0 r t y y t t y u t y t ; & - - & 4 y r i 9 0 0 y 6 & - * = = ; * 1 q e y r t t r r y r r r r r r r r r ",
"; ; - - ; ; ; ; - > ; ; ; ; ; * ; * ; - - ; - ; - - - - - ; ; ; - > ; > ; ; - - - ; - ; ; = - ; - - ; - ; ; ; ; ; ; - < - ; < ; ",
"+ + + @ @ @ O @ @ O O O o @ = ; - # * & & & # + + $ + + + + O # @ + o o o O O + O + O O + + + o # + # # + + + + + # + + # + + + ",
"q y y y y t t i y q y y y 5 # # ; * - ; # 5 t r y y y y u y y r p t t t y y y y y y t y u y y y t y y y y y y y t t y y y y u t ",
"<.<.r.r.r.z.:.r.z.v.f.6.c.f + > # - * & + f <.v.4.6.6.z.z.>.z.z.r.r.p.p.6.z.6.! <.a.v.z.:.6.X.u.:.z.6.:.z.z.u.X.z.r.z.r.r.r.z.z.",
"| $.| &.<.<.X.<.` $.2.X.u.p . + % = = % O d o.5.M 4.4.M >.M 4.M <.-.$.$.` X.4.X.<.<.f.$.P X. . .X.5.X.X. .%.%.>.| $.{ ` -.<.<.<.",
"j j j j h j j j l g j j j l l z 3 % : 8 4 y j g l l l l l l l l j j j j g c >.>.l 6 e j l l g l j h j j g l l g j j j l j j g h ",
"0 0 8 8 0 0 0 0 8 8 e w 8 z f.` 3 % > e w y e 0 w w 9 w w w w w 0 0 0 0 0 g I 1.e X % 0 0 7 7 w 0 8 0 0 8 w w 8 0 0 8 w w w 0 0 ",
"w w y e e e e e e e p e w z k.&.3 $ , 8 y q e w w w w w w w y y y e y e w l >.>.y % : e 0 y a 0 e e e w w i w w e w e w e y e e ",
"i e e i y y y y t 0 i t 0 z v.-.4 # ; y r y r y y y y w r y y w r r y y y w u y t y t y y y y y y e y y y w 0 y y e 0 y y q i q ",
"y e i 9 q q e e i t y q 0 z v.v.4 # : u y y t y y y y y y y y y y y y r y y y y y t y t t t t t e y e e r t t 0 y y y y y y 0 y ",
"t t p h j s q t y e y e w h N v 4 # < 9 y y r y y y y r r y r y y y y y y y y y y y t u y y y y e y w h g j j j y 5 0 0 y y 0 y ",
"e t h r.:.k q y r q y y w y y w < # < u y u t t y y y y y y y y y y r u r y y r t t y y y y t y y y y ! z.! 6.z.g O & 0 e y y t ",
"e r j <.:.j 0 y y y y w w w w w > # < u t u t t y y y y y y y y y u r y y u r y y y y y u t t y e y y ! 6.6.z.v.h O & 0 e y y e ",
"e r p g h d w e y w i y y y y y > # < u t t t u r y r u y y y y y y y y y r r r t t t y t t t y w p w h j j j j y 3 7 w y y w y ",
"e e r r 0 y e e w w y y w y y w > # < t t t t t y r y r y y y r y r y y y y y y y y y y p t p t y y w y r w w 0 y s y y y y 0 y ",
"e e q y y y y y y w y w w y y y > # < u t t t t y y y y r y u y y y y y y r y y y y y y 9 p t t y w e e y y w y y y 0 e e e y e ",
"q e y y q q i i y w y y y y y e - * - u t u u 9 u t t t t u t t y y y r u y y r t t t t t u t t y y t e i t 9 i y e y e e e y y ",
"0 e y y e t i i y e q q e y y y < # 1 u u t t u t t t t t t t t y y y y y y y y t t t t i t t u e y e t y t i t y y e y y e y y ",
"y y t y i 0 5 6 w y e y y 0 5 6 1 * - 4 1 9 t t i t i t u t t t y u y y y u y y t i t t u r 6 9 0 y p y y t q i y y y y y t e y ",
"w y q q q 1 % * w e t e q 1 & % * - * * * 4 u t t t t t t t t r r r r y r r y r t t t t t 9 * + 6 t i 9 t y q i e e e q q q q q ",
"y p y y 8 5 * > i i i i p 3 & * * - * * * 2 t u u u u i u u t u t u s s u d u u u u u t s 9 - * 6 i p i i i i i p p p p i i p p ",
", 1 1 2 2 > * * 1 2 2 > 2 > * * * * * 1 * > 1 2 2 1 1 1 1 1 1 1 2 1 1 4 : : 1 4 1 2 1 1 2 1 * * > 2 2 1 , , 2 2 2 2 2 2 1 2 1 1 ",
"& & = & * * * * * * * * * * > % * * * * * * * * * * * * * * * * * # # - - # & - * * * * * * * - @ * # > * * @ * * @ * % * & * * ",
"& & * * * * * * * * * * * * > * * * * * * * * * * * * * * * * * * * - # - # - & * * * * * * * @ > * * @ * * * * * > * * * * * = "
};
