/* XPM */
static char *_a7ac103e5004d89953ba800b293dfd23cuonVLp2VhzU2iV[] = {
/* columns rows colors chars-per-pixel */
"64 64 245 2 ",
"   c None",
".  c #0B0000",
"X  c #030003",
"o  c #140000",
"O  c #1B0000",
"+  c #180809",
"@  c #191617",
"#  c #00001B",
"$  c #2B0000",
"%  c #230003",
"&  c #330000",
"*  c #3C0100",
"=  c #3B0A03",
"-  c #250A13",
";  c #261819",
":  c #33221B",
">  c #091124",
",  c #231E23",
"<  c #01262B",
"1  c #0C2C31",
"2  c #012830",
"3  c #1A3136",
"4  c #182B2D",
"5  c #232224",
"6  c #252A2C",
"7  c #292C2E",
"8  c #272528",
"9  c #38292A",
"0  c #2A2E31",
"q  c #272D32",
"w  c #302F31",
"e  c #382E30",
"r  c #2D3235",
"t  c #2D3A3C",
"y  c #283837",
"u  c #323234",
"i  c #323639",
"p  c #343A3C",
"a  c #393838",
"s  c #2F322F",
"d  c #1C201E",
"f  c #480000",
"g  c #5B1B08",
"h  c #550A0C",
"j  c #660400",
"k  c #651801",
"l  c #7A1300",
"z  c #4A261D",
"x  c #49251C",
"c  c #56251A",
"v  c #5D311F",
"b  c #752802",
"n  c #7B3918",
"m  c #742D07",
"M  c #4B2A24",
"N  c #572C24",
"B  c #4D3937",
"V  c #643424",
"C  c #6E3729",
"Z  c #570030",
"A  c #16433F",
"S  c #46413E",
"D  c #764635",
"F  c #373C46",
"G  c #3A4446",
"H  c #315254",
"J  c #387878",
"K  c #3B686C",
"L  c #454749",
"P  c #495858",
"I  c #56595B",
"U  c #4D4C51",
"Y  c #6B4B4C",
"T  c #4B615E",
"R  c #4D5964",
"E  c #496466",
"W  c #5B6566",
"Q  c #56787C",
"!  c #527175",
"~  c #6D6E78",
"^  c #655F5E",
"/  c #832C00",
"(  c #873502",
")  c #863A18",
"_  c #8D300A",
"`  c #843E22",
"'  c #873B22",
"]  c #933C27",
"[  c #A03D26",
"{  c #95471C",
"}  c #9A491E",
"|  c #98481B",
" . c #8C4217",
".. c #AE4F18",
"X. c #8D4225",
"o. c #884327",
"O. c #924425",
"+. c #9B4A23",
"@. c #954829",
"#. c #874A33",
"$. c #954933",
"%. c #9A5538",
"&. c #8B543C",
"*. c #A2462F",
"=. c #A6522B",
"-. c #B95D2C",
";. c #A55737",
":. c #B25A3B",
">. c #B65B33",
",. c #A64934",
"<. c #BC612F",
"1. c #BD6132",
"2. c #B7653C",
"3. c #AF6239",
"4. c #C45F30",
"5. c #C35D2E",
"6. c #C5642B",
"7. c #C36334",
"8. c #C56A3C",
"9. c #CA6B3A",
"0. c #C76836",
"q. c #D26E3C",
"w. c #D66C36",
"e. c #D5723B",
"r. c #DA733B",
"t. c #DC7137",
"y. c #D06C34",
"u. c #E5783D",
"i. c #F1733C",
"p. c #ED5600",
"a. c #955C45",
"s. c #B05C42",
"d. c #996448",
"f. c #9B7651",
"g. c #A56649",
"h. c #B86A47",
"j. c #A76B54",
"k. c #A57956",
"l. c #B97853",
"z. c #B47051",
"x. c #A97869",
"c. c #B57B67",
"v. c #C36B42",
"b. c #CB6E42",
"n. c #C16740",
"m. c #D36E41",
"M. c #C9764B",
"N. c #DD7645",
"B. c #DD7648",
"V. c #DD7A4A",
"C. c #D77547",
"Z. c #CA7B52",
"A. c #D77D56",
"S. c #E37B4B",
"D. c #EC7D4B",
"F. c #E67944",
"G. c #FF7E42",
"H. c #F97944",
"J. c #38817E",
"K. c #4E807E",
"L. c #8D8575",
"P. c #B98876",
"I. c #B6826B",
"U. c #CA845B",
"Y. c #D78356",
"T. c #D1985E",
"R. c #EC814C",
"E. c #E8814A",
"W. c #F28247",
"Q. c #FF8144",
"!. c #F3844A",
"~. c #FE894B",
"^. c #EB8251",
"/. c #E58858",
"(. c #F28452",
"). c #FB9554",
"_. c #FE9A59",
"`. c #FE9955",
"'. c #D8AC5E",
"]. c #FAA05C",
"[. c #C88567",
"{. c #D28C6A",
"}. c #E8946A",
"|. c #CDA862",
" X c #FDAD66",
".X c #EBB56C",
"XX c #E9B56B",
"oX c #F4B96E",
"OX c #ECB773",
"+X c #F4B976",
"@X c #EFAC72",
"#X c #FBC076",
"$X c #597C83",
"%X c #6C7682",
"&X c #727885",
"*X c #3A8888",
"=X c #33B4B3",
"-X c #1DB1AF",
";X c #5B8588",
":X c #4E9294",
">X c #638A8C",
",X c #66848A",
"<X c #698C94",
"1X c #6B959B",
"2X c #73949C",
"3X c #738990",
"4X c #5D9FA6",
"5X c #6A9BA4",
"6X c #719AA4",
"7X c #5BA8A9",
"8X c #57BABB",
"9X c #4BAEAE",
"0X c #68A5A8",
"qX c #6AB6BA",
"wX c #6FACB1",
"eX c #5BC2BB",
"rX c #67BDC4",
"tX c #52BEC0",
"yX c #46CDCD",
"uX c #4ACDCC",
"iX c #4BC6C4",
"pX c #53CBCB",
"aX c #58C7C6",
"sX c #4CD1CE",
"dX c #45DACF",
"fX c #54D2CE",
"gX c #56CED1",
"hX c #4DD2D3",
"jX c #52D5D3",
"kX c #59DAD9",
"lX c #48CFD0",
"zX c #63C3C5",
"xX c #69C5C9",
"cX c #64CED1",
"vX c #64D4D6",
"bX c #51E2DB",
"nX c #56E9E8",
"mX c #57F5F4",
"MX c #52EBE8",
"NX c #60E8EA",
"BX c #5FDFE1",
"VX c #899088",
"CX c #B69085",
"ZX c #F3BA88",
"AX c #FAC68B",
/* pixels */
"                                                          o O % & $ u N h N V V                                                 ",
"                                                    ; + :XbXdXuXbX-X+.w.@Xd.4.g.D                                               ",
"                                                $ J.bXdXMXBXqXxX8XVXH.ZXAXk.D.b.n D                                             ",
"                                            T J MXfXqXqXqXvXrX~ %.p.+XAX{.a.}.m.O.C.Y                                           ",
"                                        P J gXnXMXqX3X3X3XaX9X) F.W.@XZX{.d./.b.+.D.;.C                                         ",
"                                      P nXnXwX2X0XkXwX,XE % # n i. X|.Z.}.a.S.m.+.D.=.! ;X                                      ",
"                                    W aXnXgX6X2X2X4X=XX q 8 : 3.i. X|.8.S.' S.m.+.F...>XeX^                                     ",
"                                  I pXrX%XrXvX;XW O O r u 2 n ~.i. X|.4.D.$.B.m.+.^.;.l 0XpXW                                   ",
"                                T aXqX3X1X2X7XA . i r 7 u 2 V F.)..Xk.7.D.X.V.m.+.R.:.j ~ rXaXW                                 ",
"                                J mXxX1X6XQ % 5 p r 7 s q M 8.G._.#X#.5.E.X.B.b.+.!.h.=.;.8XmXJ                                 ",
"                              K iXrXcXzXW ; y r 6 r i u 2 V F.G._..X%.5.R.X.S.n.{ W.:.6.6.*XcXaXE                               ",
"                              J.bX6X2X4X- 6 r 7 r 7 r u 2 c u.G._.oX&.5.R.O.F.h.O.H.:.-.b.R wXbXJ.                              ",
"                            y jXwX%X6XR @ r 0 0 7 r 7 i 4 n F.Q.].XX%.5.^.@.B.8.{ !.:.7.q.Q 3X0XfXy                             ",
"                            J.kXcXqX>X6 r r 0 0 0 7 u 3 z e.G.`..XZ.*.9.^.O.V.b.+.!.:.2.F.D 0XvXgX;X                            ",
"                          4 pXrXgXvXP o y r r 0 0 r a 1 z r.G.)..XM.*.8.V.` S.m.{ W.:.2.F.( aXcXrXgXq                           ",
"                          < jXzX3X;Xo q r 0 u 0 r r r 1 z q.G.)..XY.*.0.V.` B.C.} W.:.<.W.O.E ~ xXjX<                           ",
"                          O sXrX3X>X@ 6 0 0 0 i i 0 w 1 M r.G.`.oXU.O.9.V.o.C.8.+.!.:.<.(.) d ^ xXuX&                           ",
"                          9XzX6X<XK ; 0 0 0 0 i r 0 w 1 x r.Q.2.d.%.g 0.Y. .C.Z.@.W.;.1.^._ y >X6XzX9X                          ",
"                        O fXmXbXfXd O F 6 6 0 0 0 0 w 2 N w.9.0.u.u.7.X.@.n Y.Z.+.!.%.1./.b a gXkXmXhXO                         ",
"                        . uXvX0X7Xp U W I F 6 0 0 0 w 2 v q.>.N.E.h.A.V.F.2.;.X.' V.@.7.^.m u :X;XjXlX.                         ",
"                        . fXzX&X>XU I I W I 6 0 0 0 e 2 V y.0.n.-.x.CXb.[.}.D.S.+.$.` =.C.b e $XZ pXsX.                         ",
"                        o sXxX&X>XU ^ U W I 6 0 0 0 w 3 z r.~.;.j ) g.g.CXI.2.c.E.R.m.=.;.b M %XU aXlX.                         ",
"                        o sXBXzX8XG I W I F q 0 0 0 i 3 z w.~.^.l.n n n  .;.g.CXh.z.[.R.^.6.D 8X7XkXyX.                         ",
"                        % fXmXvXpX3 - G 5 8 0 q 0 i i 1 z e.Q.`.+XU.$.;.O.j k } =.j.P.3.x.A.%.=XyXMXsX.                         ",
"                        % sXxX~ ,X7 , 0 0 0 0 r i 0 w 1 z e.Q.)..X{.,.e.C.n :.n k m | @.x.c.) G   pXhXo                         ",
"                        $ fXxX3X>X6 8 i 0 0 0 i i 0 w 1 z w.Q.`.OXM.] 0.V.o.S.2.@.8.k k (  .C K   pXsX.                         ",
"                        & fXcX5X0Xy ; i 6 0 u 0 r i w 1 x e.Q.)..XY.] 0.B.o.C.v.+.W.$.>.3.f a :XR pXsXo                         ",
"                        * uXmXkXjXy - t 0 i 0 0 0 0 w 1 x r.Q.).+XA.n 9.S.` V.n.| F.%.0.^.b a 9XtXMXlXO                         ",
"                        * sXvX5X7X7 5 t r 0 0 0 0 0 w 1 z e.Q.).XXk.F 8.V.` S.m.+.D.%.<.E.) 9 *X  bXlXO                         ",
"                        * uXxX&X,X8 5 F i 0 0 0 0 0 w 3 M w.Q._.'.VX$Xl.E.o.F.q.+.E.$.1.R.o.;     gXlXo                         ",
"                        & sXxX~ ,X6 6 u 0 r 0 0 r 0 i 3 x r.Q._.'.L.<Xl.B.o.S.m.+.D.%.1.^.o.; P   iXlXO                         ",
"                        f sXnXvXpXt - t 0 i 0 0 0 r i 1 x r.Q.`.XXL.E 8.S.o.S.m.+.H.;.1.(.( 3 8X8XMXyXO                         ",
"                        & uXnXzXtX3 - t 0 0 r 0 r u w 1 z r.Q.).oXx.# 0.D.O.V.C.| !.:.1.(._ t 9X9XnXuXo                         ",
"                        f uXzX%X,X6 5 r 0 0 6 i i q w 1 x e.G.).oXz.# 9.D.O.B.v.+.(.>.1.(.) 8 E   pXuXo                         ",
"                        * pXxX&X<X6 , i 6 6 G i 0 0 u 1 x r.Q.).oXl.> 8.D.O.B.n.+.!.:.<.D.n 7 !   iXuXo                         ",
"                        * uXgX5X5Xr , p F U U r 0 0 w 1 z m.Q.).oXl.# 0.R.] N.8.| W.%.1.R.( r :X! pXuXo                         ",
"                        * uXmXMXhXt % t U L q 6 0 0 u 1 x r.Q.).oXz.X U.@Xh.S.m.+.W.$.4.(./ G pXhXmXyX.                         ",
"                        & uXzX%X>X4 5 L L q q 0 0 0 w 1 N e.Q.`..Xf.R [.}.j./.9.+.D.%.-.!.) 7 $X  iXyXo                         ",
"                        * uXzX~ ;X8 G U 6 r 0 0 0 0 w 3 x r.Q._.'.L.2XP.}.j./.m.+.W.,.7.(.) 7 !   iXlX.                         ",
"                        = iXzX~ >XF L y q i 0 0 0 0 a 3 z u.i._.'.VX<X[.}.d.Y.m.} W.:.7.(.) 6 Q f aXsXO                         ",
"                        * uXnXcXzXG - i q 0 r 0 0 u u 2 z r.Q.).XXL.H h./.n N.9.{ !.s.-.^./ p tXpXnXgX$                         ",
"                        * iXnXqX8Xy - t 0 0 0 i r 0 w 1 z r.Q.)..XM._ 0.V.X.V.n.} !.;.-.^.( p 8XrXBXgXO                         ",
"                        = iXrXY $X6 5 r 0 0 0 i i 0 0 1 z r.Q.)..XA.,.8.E.X.B.n.+.E.;.6.E.g 9 ,X~ rXlXX                         ",
"                        = pX8XY $X6 5 r q 0 u 0 r r u 1 z e.Q.).oXA.*.0.R.O.B.b.=.!.D =.9. .C ,X&XxXuXo                         ",
"                        * uXkX7X7Xq , i q r 0 7 0 0 a 1 z r.Q.)..XA.@.1.^.$.R.:.m 9.;.=.y.F...^ 0XNXuXo                         ",
"                        * yXMXhXiX0 , t r r 0 0 0 0 u 1 z r.G.)..XA.$.e.C.g 2.2.-.7.u.u.[.{...Y aXmXyX.                         ",
"                        * uXiX& Q 8 5 p u 7 0 0 0 0 e 3 M r.G._.#XM.k @.8.7.-.t.F.{.c.8.P.x.} x.Q xXlXo                         ",
"                        & sXiXf ! 6 6 r r r 0 0 0 7 u 3 : t.~.b.f.;.0.9.q.S.A.P.z.k.I.| %./ M :X,XxXsXo                         ",
"                        & sX8Xf Q 0 5 r 0 r r 0 0 0 a < N w.e.<.0.q.B.N.P.c.z.I.$.{  .k k j e >X~ cXuXo                         ",
"                        & yXMXsXpXy - t q r r 0 r r w 2 v y.>.B.i.P.P.:.l.a.) ) b k k >.b./ G kXnXmXsXo                         ",
"                        & uXsX:X:X4 d i 0 0 0 i i 0 w < v y.7.q.M.j.j.n / b b k @.V.@.4.(.( r 7XwXvXhX.                         ",
"                        & iX8Xf ! 7 5 q 6 0 0 i r 0 w 1 z t.W.=.m ( b m n k B.M.=.(.:.>.(.) 8 <X&XxXyX.                         ",
"                        = iXaXU $X6 d p 0 7 r 0 0 r u 1 x w.~.E.%.` b 8.S.@.Y./.+.H.:.1.D.m e 2X2XvXdXo                         ",
"                        S 7X:XU E 8 L I U q 8 6 8 8 6 < x r.Q.`.OXY.$.9.^.;.Y.b.{ W.:.1.R.n 9 ,X~ 7XqX                          ",
"                            . 0 + a L a L u @ ; 5 , 8 < c r.Q.)..XV.*.8.^.%.V.2.} W.;.6.S.D B 8 a $ Y                           ",
"                                                        N F.Q.)..XZ.[ M./.$.B.n.+.R.;.;.j.                                      ",
"                                                        g F.G.`..XZ.;.M.^.O.V.n.| R.&.S                                         ",
"                                                        c r.G.)..XU.s.9.B.o.D.b.` %.                                            ",
"                                                        c u.Q.)..XU.$.0.V.X.r.;.                                                ",
"                                                        c r.Q.).OXU.' m.S.#.D                                                   ",
"                                                        c r.Q.).XXZ.$.8.2.                                                      ",
"                                                        c F.~._.#XM.$.D                                                         ",
"                                                          h.w.M.T.d.                                                            ",
"                                                            +   &                                                               "
};
